HIERARCHY
ROOT Hips
{
	OFFSET -0.001795 -0.223333 0.028219
	CHANNELS 6 Xposition Yposition Zposition Zrotation Yrotation Xrotation 
	JOINT LeftUpLeg
	{
		OFFSET 0.069520 -0.091406 -0.006815
		CHANNELS 3 Zrotation Yrotation Xrotation
		JOINT LeftLeg
		{
			OFFSET 0.034277 -0.375199 -0.004496
			CHANNELS 3 Zrotation Yrotation Xrotation
			JOINT LeftFoot
			{
				OFFSET -0.013596 -0.397961 -0.043693
				CHANNELS 3 Zrotation Yrotation Xrotation
				JOINT LeftToe
				{
					OFFSET 0.026358 -0.055791 0.119288
					CHANNELS 3 Zrotation Yrotation Xrotation
					End Site
					{
						OFFSET 0.000000 0.000000 0.000000
					}
				}
			}
		}
	}
	JOINT RightUpLeg
	{
		OFFSET -0.067670 -0.090522 -0.004320
		CHANNELS 3 Zrotation Yrotation Xrotation
		JOINT RightLeg
		{
			OFFSET -0.038290 -0.382569 -0.008850
			CHANNELS 3 Zrotation Yrotation Xrotation
			JOINT RightFoot
			{
				OFFSET 0.015774 -0.398415 -0.042312
				CHANNELS 3 Zrotation Yrotation Xrotation
				JOINT RightToe
				{
					OFFSET -0.025372 -0.048144 0.123348
					CHANNELS 3 Zrotation Yrotation Xrotation
					End Site
					{
						OFFSET 0.000000 0.000000 0.000000
					}
				}
			}
		}
	}
	JOINT Spine
	{
		OFFSET -0.002533 0.108963 -0.026696
		CHANNELS 3 Zrotation Yrotation Xrotation
		JOINT Spine1
		{
			OFFSET 0.005487 0.135180 0.001092
			CHANNELS 3 Zrotation Yrotation Xrotation
			JOINT Spine2
			{
				OFFSET 0.001457 0.052922 0.025425
				CHANNELS 3 Zrotation Yrotation Xrotation
				JOINT Neck
				{
					OFFSET -0.002778 0.213870 -0.042857
					CHANNELS 3 Zrotation Yrotation Xrotation
					JOINT Head
					{
						OFFSET 0.005152 0.064970 0.051349
						CHANNELS 3 Zrotation Yrotation Xrotation
						End Site
						{
							OFFSET 0.000000 0.000000 0.000000
						}
					}
				}
				JOINT LeftShoulder
				{
					OFFSET 0.078845 0.121749 -0.034090
					CHANNELS 3 Zrotation Yrotation Xrotation
					JOINT LeftArm
					{
						OFFSET 0.090977 0.030469 -0.008868
						CHANNELS 3 Zrotation Yrotation Xrotation
						JOINT LeftForeArm
						{
							OFFSET 0.259612 -0.012772 -0.027456
							CHANNELS 3 Zrotation Yrotation Xrotation
							JOINT LeftHand
							{
								OFFSET 0.249234 0.008986 -0.001171
								CHANNELS 3 Zrotation Yrotation Xrotation
								End Site
								{
									OFFSET 0.000000 0.000000 0.000000
								}
							}
						}
					}
				}
				JOINT RightShoulder
				{
					OFFSET -0.081759 0.118833 -0.038615
					CHANNELS 3 Zrotation Yrotation Xrotation
					JOINT RightArm
					{
						OFFSET -0.096012 0.032551 -0.009143
						CHANNELS 3 Zrotation Yrotation Xrotation
						JOINT RightForeArm
						{
							OFFSET -0.253742 -0.013329 -0.021401
							CHANNELS 3 Zrotation Yrotation Xrotation
							JOINT RightHand
							{
								OFFSET -0.255298 0.007772 -0.005559
								CHANNELS 3 Zrotation Yrotation Xrotation
								End Site
								{
									OFFSET 0.000000 0.000000 0.000000
								}
							}
						}
					}
				}
			}
		}
	}
}
MOTION
Frames: 18
Frame Time: 0.050000
-0.006887 0.951998 -0.071571 -1.328962 8.833272 5.170074 3.164656 -0.630473 -7.868238 0.069902 -0.568656 11.464466 0.084514 -0.228802 -0.683386 0.000000 0.000000 0.000000 -0.126730 1.089490 -11.597536 1.152692 -0.002218 17.551259 -3.671029 -9.991042 4.615054 0.000000 0.000000 0.000000 7.468808 -0.008943 -2.285648 2.523754 -0.937947 -3.333591 -1.775710 4.052806 -0.370504 0.175664 1.511693 -12.578437 0.000000 0.000000 0.000000 4.744502 -2.492758 1.589779 4.502882 -27.997887 -2.520856 74.611571 -4.910612 -5.901762 0.000000 0.000000 0.000000 6.559642 -5.886467 -2.458939 29.737322 -19.100047 -6.271809 97.831442 35.613946 45.486499 0.000000 0.000000 0.000000 
-0.005902 0.952389 -0.071968 -1.389610 8.688215 4.880882 3.115400 -0.606368 -7.551070 0.059178 -0.573932 11.618085 0.204637 -0.099614 -0.900228 0.000000 0.000000 0.000000 -0.041851 1.097944 -11.606993 0.884758 0.078872 17.772261 -3.568442 -9.849755 5.280625 0.000000 0.000000 0.000000 7.640244 -0.012540 -2.192129 2.316689 -0.846298 -3.354056 -1.971966 4.172156 -0.295201 0.484188 1.280505 -12.126187 0.000000 0.000000 0.000000 4.309737 -1.823122 1.335849 2.159913 -28.648873 -2.183339 76.347958 -5.782139 -6.842164 0.000000 0.000000 0.000000 6.818842 -7.024811 -2.957889 29.384720 -18.734701 -6.127317 99.995630 35.724577 47.335339 0.000000 0.000000 0.000000 
-0.005211 0.952726 -0.072584 -1.264101 8.443546 4.584006 2.863520 -0.597806 -7.395762 0.154212 -0.610542 11.979655 0.212047 -0.053429 -0.855003 0.000000 0.000000 0.000000 -0.237804 1.086530 -11.647608 0.815504 0.107669 18.494200 -3.384150 -9.432856 5.115170 0.000000 0.000000 0.000000 7.582136 -0.020956 -1.999295 1.876807 -0.643693 -3.511588 -1.816629 4.184170 0.022939 0.461666 1.312125 -12.327350 0.000000 0.000000 0.000000 3.209652 -1.448192 1.027171 -1.346604 -29.771234 -1.639667 79.152208 -6.058776 -7.431203 0.000000 0.000000 0.000000 6.113887 -7.834358 -3.265524 30.475758 -18.739973 -6.395428 101.790185 35.112628 48.027353 0.000000 0.000000 0.000000 
-0.004514 0.953061 -0.073446 -1.279491 8.243498 4.317810 2.781050 -0.608152 -7.542199 -0.041666 -0.596593 12.454172 0.466662 0.744413 -0.424934 0.000000 0.000000 0.000000 -0.063289 1.098016 -11.594831 0.345157 0.253990 18.693893 -3.241185 -9.168436 5.411229 0.000000 0.000000 0.000000 8.041813 0.002068 -2.214288 1.251941 -0.398724 -3.088941 -2.103446 4.168741 0.070465 0.575307 1.242561 -12.352381 0.000000 0.000000 0.000000 2.162840 -0.931394 0.684113 -5.803259 -30.668891 -0.845546 81.729049 -7.399823 -8.930780 0.000000 0.000000 0.000000 5.388845 -8.614150 -3.544067 31.080390 -18.476333 -6.480729 103.292683 34.001570 47.918770 0.000000 0.000000 0.000000 
-0.003880 0.952533 -0.074534 -1.127891 8.225449 4.133242 2.523687 -0.619652 -7.619337 0.333976 -0.705396 12.952276 0.171294 -0.011466 -0.640609 0.000000 0.000000 0.000000 -0.245292 1.079353 -11.558294 0.285276 0.272595 19.190931 -3.193366 -8.971101 4.800338 0.000000 0.000000 0.000000 8.497592 -0.006612 -2.150999 0.545925 -0.094177 -2.966466 -2.358325 4.328212 0.328272 0.863081 1.164898 -13.014349 0.000000 0.000000 0.000000 0.595830 -0.941706 0.390393 -11.242617 -31.319912 0.184971 84.823356 -9.080345 -11.018953 0.000000 0.000000 0.000000 4.609514 -9.147328 -3.697717 32.043197 -18.451578 -6.692953 104.943700 32.636216 47.722105 0.000000 0.000000 0.000000 
-0.003358 0.952207 -0.075635 -0.998396 8.436732 3.901466 2.339085 -0.639975 -7.815930 0.415535 -0.769751 13.584936 0.064015 -0.273135 -0.689096 0.000000 0.000000 0.000000 -0.234870 1.054095 -11.271364 -0.014065 0.349958 19.311752 -3.227683 -8.971969 4.368630 0.000000 0.000000 0.000000 8.695081 0.024891 -2.416579 0.096296 0.073906 -2.354040 -2.913572 4.343388 0.512116 1.156887 1.063534 -13.471759 0.000000 0.000000 0.000000 -1.434749 -0.808124 -0.054585 -15.757426 -31.349384 1.062109 86.544959 -11.910839 -13.943741 0.000000 0.000000 0.000000 4.778377 -9.050754 -3.662099 32.184179 -18.640828 -6.778968 105.943896 31.412985 47.052090 0.000000 0.000000 0.000000 
-0.003065 0.951372 -0.076574 -0.896008 8.920939 3.766548 2.068302 -0.653926 -7.875163 0.974507 -0.933523 14.015151 -0.230283 -1.304819 -1.310510 0.000000 0.000000 0.000000 -0.124541 1.046847 -11.123460 -0.274594 0.401992 19.869189 -3.391795 -9.181082 3.347248 0.000000 0.000000 0.000000 8.834439 0.025407 -2.445173 -0.435567 0.314028 -2.330587 -3.159342 3.970042 1.323591 1.479911 1.030636 -14.780612 0.000000 0.000000 0.000000 -3.122943 -0.252928 -0.582026 -20.411037 -31.747997 1.953642 88.614023 -14.167341 -16.470218 0.000000 0.000000 0.000000 3.945615 -8.884539 -3.534660 33.039953 -18.281336 -6.937999 106.820457 29.647355 45.479352 0.000000 0.000000 0.000000 
-0.003180 0.951060 -0.077336 -0.878326 9.237778 3.438082 1.827902 -0.658894 -7.849303 1.269584 -1.010927 14.066707 -0.234614 -1.021055 -0.839877 0.000000 0.000000 0.000000 0.075618 1.025959 -10.712719 -0.650844 0.497982 20.019615 -3.383826 -9.090227 2.894983 0.000000 0.000000 0.000000 9.004102 0.051154 -2.633195 -0.671610 0.393331 -1.735477 -3.684311 3.480537 1.859104 1.698651 1.013247 -15.844325 0.000000 0.000000 0.000000 -4.706372 0.254699 -1.078635 -23.309864 -31.053871 2.399342 89.335962 -16.142401 -18.369642 0.000000 0.000000 0.000000 3.634051 -8.734101 -3.456153 33.032604 -17.997313 -6.904732 107.872798 28.427536 44.503298 0.000000 0.000000 0.000000 
-0.003598 0.950767 -0.078086 -0.816498 9.798548 3.474948 1.683333 -0.675142 -7.970217 1.519855 -1.087447 14.170157 -0.321430 -1.446279 -1.193876 0.000000 0.000000 0.000000 0.310209 1.052939 -10.854115 -0.736136 0.491980 20.505413 -3.813426 -10.044525 2.488535 0.000000 0.000000 0.000000 8.671677 0.047651 -2.614267 -0.893303 0.507988 -1.989369 -3.901786 3.010337 2.734703 1.729847 1.088254 -16.694231 0.000000 0.000000 0.000000 -5.831154 0.591786 -1.429622 -25.568504 -31.008763 2.761660 89.963101 -17.916677 -20.122663 0.000000 0.000000 0.000000 3.413189 -9.083122 -3.582572 33.075491 -17.969365 -6.947442 109.158823 27.209173 43.739288 0.000000 0.000000 0.000000 
-0.004243 0.950788 -0.078950 -0.890303 9.995224 3.520833 1.755596 -0.700043 -8.276043 1.563035 -1.119229 14.375924 -0.325965 -1.395493 -1.095616 0.000000 0.000000 0.000000 0.608061 1.087567 -10.990288 -1.008310 0.563791 20.738545 -3.849182 -10.103855 2.290334 0.000000 0.000000 0.000000 8.530713 0.075156 -2.880161 -1.008204 0.564849 -2.083362 -4.217890 2.855390 3.488800 1.749538 1.165458 -17.411555 0.000000 0.000000 0.000000 -6.127937 0.884483 -1.598400 -26.852922 -31.147516 2.959735 89.365765 -18.571144 -20.512812 0.000000 0.000000 0.000000 3.622254 -9.406040 -3.726915 32.177674 -17.671735 -6.718348 110.189179 26.230498 43.115567 0.000000 0.000000 0.000000 
-0.004745 0.950804 -0.079924 -0.928435 10.160994 3.663821 1.870405 -0.718526 -8.523559 1.464908 -1.104901 14.420435 -0.319207 -1.431418 -1.167559 0.000000 0.000000 0.000000 0.798390 1.145961 -11.491138 -0.950788 0.534347 21.512116 -4.080754 -10.623114 1.968273 0.000000 0.000000 0.000000 8.185154 0.054147 -2.686360 -1.325420 0.729147 -2.590467 -4.057685 2.289911 4.234387 1.590488 1.289582 -18.160756 0.000000 0.000000 0.000000 -6.441129 1.118107 -1.710642 -27.090496 -31.542230 3.031709 89.185086 -18.358553 -19.996872 0.000000 0.000000 0.000000 3.068691 -9.448629 -3.707923 31.857711 -17.990112 -6.736395 110.754521 24.982646 41.360215 0.000000 0.000000 0.000000 
-0.004876 0.950945 -0.080873 -0.975109 10.010701 3.593987 1.844191 -0.716185 -8.494238 1.564459 -1.127832 14.465396 -0.266421 -1.336470 -1.202354 0.000000 0.000000 0.000000 0.887399 1.181433 -11.794897 -1.023753 0.565694 22.261491 -3.996495 -10.392904 1.699585 0.000000 0.000000 0.000000 7.876979 0.057689 -2.647128 -1.571195 0.825909 -2.317762 -3.943519 1.893488 4.217960 1.420384 1.330020 -18.141261 0.000000 0.000000 0.000000 -6.684461 1.473313 -1.855332 -27.073099 -32.007558 3.120321 88.348747 -17.685394 -18.865658 0.000000 0.000000 0.000000 2.622718 -9.139396 -3.553026 31.270162 -17.855483 -6.575781 111.199497 24.470158 40.539681 0.000000 0.000000 0.000000 
-0.004493 0.950989 -0.081439 -0.979947 9.795089 3.617050 1.886969 -0.704481 -8.381553 1.451787 -1.072642 14.169014 -0.264302 -1.260450 -1.099619 0.000000 0.000000 0.000000 0.915074 1.213668 -12.114646 -1.179418 0.631235 22.582374 -3.931570 -10.258513 1.923944 0.000000 0.000000 0.000000 7.768476 0.053521 -2.579043 -1.832535 0.947631 -2.503894 -3.791783 1.367536 4.564272 1.266623 1.360862 -18.282134 0.000000 0.000000 0.000000 -6.547831 1.985672 -1.965999 -26.476466 -32.470418 3.067053 87.049870 -16.669460 -17.256356 0.000000 0.000000 0.000000 1.888433 -9.050320 -3.457076 30.661794 -17.303331 -6.344612 111.149704 23.123812 38.048996 0.000000 0.000000 0.000000 
-0.003802 0.950892 -0.081604 -0.895565 9.147963 3.508060 1.695983 -0.690008 -8.165615 1.325261 -1.030442 14.175037 0.044678 -0.564815 -1.079753 0.000000 0.000000 0.000000 0.792767 1.220212 -12.253385 -1.231372 0.695067 22.908254 -3.832444 -10.021468 1.873594 0.000000 0.000000 0.000000 7.719754 0.054611 -2.499840 -2.150503 1.088305 -2.602906 -3.678159 1.240004 4.632041 1.127010 1.320710 -17.596557 0.000000 0.000000 0.000000 -6.727488 1.760404 -1.874685 -25.364732 -32.713669 2.905584 85.468237 -15.517196 -15.576262 0.000000 0.000000 0.000000 1.557841 -8.729930 -3.302232 29.811744 -16.672516 -6.043442 111.192136 22.395026 36.609294 0.000000 0.000000 0.000000 
-0.003019 0.950627 -0.081555 -0.900472 8.483918 3.529104 1.736894 -0.683686 -8.130223 1.032179 -0.943900 14.099286 0.265023 0.048455 -0.872709 0.000000 0.000000 0.000000 0.663144 1.223757 -12.361354 -1.172279 0.723457 23.027496 -3.659931 -9.574596 1.589372 0.000000 0.000000 0.000000 7.852864 0.068572 -2.607128 -2.443324 1.213676 -2.609613 -3.492529 0.961513 4.760739 1.222133 1.188507 -17.547565 0.000000 0.000000 0.000000 -6.713925 1.878775 -1.861749 -24.272113 -32.972779 2.735679 83.950760 -14.118719 -13.712416 0.000000 0.000000 0.000000 1.100569 -8.275897 -3.084263 29.399783 -15.506003 -5.754645 110.539536 21.661763 34.631983 0.000000 0.000000 0.000000 
-0.002352 0.950270 -0.081473 -0.893314 7.799843 3.421964 1.590524 -0.682860 -8.088126 0.892537 -0.913362 14.333451 0.690572 1.013836 -0.801369 0.000000 0.000000 0.000000 0.359757 1.209325 -12.442444 -1.032679 0.729592 23.401408 -3.273329 -8.575896 1.208903 0.000000 0.000000 0.000000 7.887410 0.049491 -2.345767 -2.689034 1.325522 -2.911979 -3.351211 0.814980 4.804005 1.376392 0.973021 -16.852328 0.000000 0.000000 0.000000 -6.712437 1.749969 -1.766500 -23.419779 -33.070836 2.585179 82.935912 -12.620082 -12.009003 0.000000 0.000000 0.000000 1.363463 -7.826079 -2.936742 28.644274 -14.768863 -5.476725 110.193643 21.058310 33.061931 0.000000 0.000000 0.000000 
-0.001819 0.950039 -0.081587 -0.997136 6.994925 3.365925 1.663555 -0.686260 -8.192495 0.690273 -0.865154 14.597693 1.008094 1.857065 -0.515280 0.000000 0.000000 0.000000 0.286384 1.217119 -12.514561 -1.050547 0.798309 23.681624 -2.883296 -7.518121 0.712550 0.000000 0.000000 0.000000 8.002546 0.048259 -2.278265 -2.686573 1.317050 -2.765886 -3.156897 0.706242 4.493567 1.409421 0.875671 -16.697183 0.000000 0.000000 0.000000 -6.377443 2.009834 -1.763235 -23.075873 -33.172201 2.549095 82.417410 -11.578194 -10.828030 0.000000 0.000000 0.000000 1.139965 -7.343439 -2.731107 28.651463 -13.901011 -5.318604 109.553402 20.768600 31.834381 0.000000 0.000000 0.000000 
-0.001334 0.950016 -0.081850 -1.031475 6.263915 3.375329 1.724105 -0.678300 -8.154502 0.518814 -0.792692 14.379423 1.142090 2.404852 -0.010498 0.000000 0.000000 0.000000 0.184680 1.221876 -12.591735 -1.078872 0.862097 23.702679 -2.593317 -6.746167 0.497931 0.000000 0.000000 0.000000 8.037309 0.040032 -2.153947 -2.609108 1.277261 -2.690824 -3.268463 0.361533 4.134054 1.708837 0.574694 -16.178748 0.000000 0.000000 0.000000 -6.389248 2.131104 -1.763027 -23.463214 -32.910169 2.613111 82.874597 -11.152781 -10.293073 0.000000 0.000000 0.000000 1.249542 -6.800722 -2.537564 28.715746 -13.165724 -5.191042 109.195040 20.186434 30.223516 0.000000 0.000000 0.000000 
